<svg xmlns="http://www.w3.org/2000/svg" viewBox="0 0 11.19 21.48"><defs><style>.cls-1{fill:#fff;}</style></defs><g id="Capa_2" data-name="Capa 2"><g id="home_1" data-name="home 1"><path class="cls-1" d="M3.32,21.48c0-.08,0-.15,0-.23q0-4.66,0-9.33c0-.19,0-.24-.24-.24H.2c-.15,0-.2,0-.2-.2C0,10.35,0,9.2,0,8.06c0-.16,0-.2.2-.2H3.12c.15,0,.2,0,.2-.2,0-1,0-2,0-3.06A4.77,4.77,0,0,1,4.6,1.39,4.37,4.37,0,0,1,7,.13,9.32,9.32,0,0,1,9.26,0C9.84,0,10.41.1,11,.13c.16,0,.21.06.21.22,0,1,0,2,0,3,0,.15,0,.18-.19.18-.76,0-1.53,0-2.29,0A1.38,1.38,0,0,0,7.28,5.06c0,.89,0,1.78,0,2.66,0,.17.09.14.19.14h3.38c.18,0,.22,0,.19.22-.15,1.13-.3,2.27-.44,3.4,0,.17-.08.21-.25.21H7.46c-.14,0-.2,0-.2.18v9.52s0,.07,0,.1Z"/></g></g></svg>