<svg xmlns="http://www.w3.org/2000/svg" viewBox="0 0 18.4 18.46"><defs><style>.cls-1{fill:#fff;}</style></defs><g id="Capa_2" data-name="Capa 2"><g id="Capa_1-2" data-name="Capa 1"><path class="cls-1" d="M18.4,5.45v7.42l0,.2c0,.36-.06.72-.12,1.08a4.84,4.84,0,0,1-1.58,3,5.36,5.36,0,0,1-3.37,1.28L12,18.46H6.44l-.34,0a10.21,10.21,0,0,1-2.2-.23A4.7,4.7,0,0,1,.59,15.54,6.55,6.55,0,0,1,0,12.74c0-2,0-4,0-6a13.6,13.6,0,0,1,.21-2.7A4.77,4.77,0,0,1,2.89.61,6.79,6.79,0,0,1,5.66.05C8.2,0,10.75,0,13.29.09a5.7,5.7,0,0,1,2.15.48,4.81,4.81,0,0,1,2.85,3.92c.05.32.07.64.11,1M9.19,16.83v0h1.48c1.05,0,2.1,0,3.14-.16a3,3,0,0,0,2.73-2.41,8,8,0,0,0,.19-1.76c0-1.86,0-3.71,0-5.57a18.53,18.53,0,0,0-.13-2.23,3.07,3.07,0,0,0-2.58-2.78,10.45,10.45,0,0,0-1.94-.18c-1.72,0-3.45,0-5.18,0a16.22,16.22,0,0,0-2.42.16A3,3,0,0,0,1.89,4.29a10.23,10.23,0,0,0-.2,1.91c0,1.5,0,3,0,4.49,0,1,0,2.07.14,3.09a3.05,3.05,0,0,0,1.53,2.44,3.92,3.92,0,0,0,1.89.5c1.32.05,2.64.07,4,.11"/><path class="cls-1" d="M9.21,14A4.74,4.74,0,1,1,14,9.23,4.74,4.74,0,0,1,9.21,14M6.14,9.23A3.07,3.07,0,1,0,9.21,6.16,3.08,3.08,0,0,0,6.14,9.23"/><path class="cls-1" d="M15.24,4.3a1.09,1.09,0,0,1-1.08,1.11,1.1,1.1,0,1,1,0-2.2A1.09,1.09,0,0,1,15.24,4.3"/></g></g></svg>