<svg xmlns="http://www.w3.org/2000/svg" viewBox="0 0 34 34"><defs><style>.cls-1{fill:#dc9040;}.cls-2{fill:#fff;}</style></defs><g id="Capa_2" data-name="Capa 2"><g id="Capa_1-2" data-name="Capa 1"><path class="cls-1" d="M34,17A17,17,0,1,1,17,0,17,17,0,0,1,34,17"/><path class="cls-2" d="M14.37,18.9l.3-.29,8.75-8.75c.32-.31.32-.31.62,0l2.29,2.25a2.85,2.85,0,0,1,.22.24l-.28.3q-5.79,5.79-11.59,11.59c-.32.32-.32.32-.64,0L7.85,18.09c-.36-.36-.36-.36,0-.73.73-.72,1.47-1.43,2.18-2.16.23-.23.36-.19.56,0,1.16,1.16,2.33,2.3,3.49,3.45l.27.24"/></g></g></svg>