<svg xmlns="http://www.w3.org/2000/svg" viewBox="0 0 23.77 15.58"><defs><style>.cls-1{fill:#fff;}</style></defs><g id="Capa_2" data-name="Capa 2"><g id="Capa_1-2" data-name="Capa 1"><path class="cls-1" d="M0,2A6.12,6.12,0,0,1,.47,1a2.31,2.31,0,0,1,2-1H21.24A2.46,2.46,0,0,1,23.3,1a2.38,2.38,0,0,1,.47,1.48V13.07a2.38,2.38,0,0,1-2.51,2.5H2.53a2.36,2.36,0,0,1-2.06-1,6.49,6.49,0,0,1-.47-1Zm3-.45.13.15q4.2,4.2,8.39,8.39c.25.25.41.24.67,0q4.17-4.17,8.35-8.35l.14-.17ZM3.51,14H20.24L15.39,9.13s-.09.12-.15.18l-1.93,1.93a1.91,1.91,0,0,1-2.85,0c-.66-.64-1.3-1.3-2-2l-.16-.15L3.51,14M1.64,2.39l-.07,0v.79q0,4.92,0,9.84c0,.15,0,.3,0,.45L7.17,8C5.34,6.12,3.48,4.26,1.64,2.39M22.12,13.5c.08-.2.13-10.7.05-11L16.62,8c1.82,1.82,3.65,3.66,5.5,5.5"/></g></g></svg>