<svg xmlns="http://www.w3.org/2000/svg" viewBox="0 0 16.94 17.01"><defs><style>.cls-1{fill:#fff;}</style></defs><g id="Capa_2" data-name="Capa 2"><g id="Capa_1-2" data-name="Capa 1"><path class="cls-1" d="M0,17c.13-.48.25-.93.38-1.38.25-.94.51-1.88.76-2.82a.39.39,0,0,0,0-.3,8.44,8.44,0,1,1,9.88,4,8.27,8.27,0,0,1-6.39-.57.45.45,0,0,0-.28,0L.19,17,0,17m2-2,2.47-.65a.42.42,0,0,1,.36.05,6.87,6.87,0,0,0,5,.89,7,7,0,1,0-7.46-3.44,1.43,1.43,0,0,1,.14,1.25c-.2.61-.35,1.24-.53,1.9"/><path class="cls-1" d="M5.78,4.55c.36-.09.53.13.66.45.19.5.39,1,.6,1.47a.42.42,0,0,1,0,.47c-.16.22-.32.45-.5.66a.33.33,0,0,0,0,.43,5.72,5.72,0,0,0,2.91,2.49.33.33,0,0,0,.42-.1c.21-.26.42-.51.62-.77s.24-.24.46-.14c.59.27,1.18.55,1.77.85a.31.31,0,0,1,.13.25,1.62,1.62,0,0,1-1.23,1.73,2.46,2.46,0,0,1-1.67,0A8.54,8.54,0,0,1,5.14,8.83a4.73,4.73,0,0,1-.85-1.69A2.41,2.41,0,0,1,5,4.77a.94.94,0,0,1,.8-.22"/></g></g></svg>